<?xml version="1.0" encoding="UTF-8"?><svg id="_레이어_1" xmlns="http://www.w3.org/2000/svg" viewBox="0 0 97.73 58.46"><defs><style>.cls-1{fill:none;stroke:#231815;stroke-miterlimit:10;}.cls-2{fill:#231815;}</style></defs><path class="cls-1" d="M26.02,20.29c-9.39-3.92-20.17,.51-24.09,9.89s.51,20.17,9.89,24.09"/><path class="cls-1" d="M31.36,5.29c-9.01-1.59-17.64,1.93-21.06,10.11-3.42,8.18,.44,17.58,8.62,21"/><path class="cls-1" d="M20.15,36.72c4.37,1.82,9.39-.24,11.21-4.61,1.82-4.37-.24-9.39-4.61-11.21"/><polyline class="cls-1" points="24.62 8.01 28.33 6.79 32.03 5.57 29.12 2.97 26.21 .37"/><g><path class="cls-2" d="M19.6,51.81c1.33,0,2.1,.71,2.1,1.77s-.78,1.77-2.1,1.77h-1.14v1.56h-.67v-5.11h1.81Zm1.43,1.77c0-.76-.56-1.17-1.49-1.17h-1.09v2.33h1.09c.92,0,1.49-.41,1.49-1.17Z"/><path class="cls-2" d="M25.04,56.91v-.55c-.15,.27-.57,.64-1.24,.64-.86,0-1.47-.62-1.47-1.6v-2.14h.66v2.02c0,.74,.36,1.14,.95,1.14,.64,0,1.1-.6,1.1-1.27v-1.89h.66v3.65h-.66Z"/><path class="cls-2" d="M28.64,53.85h-.81v3.07h-.66v-3.07h-.81v-.58h.81v-1.11h.66v1.11h.81v.58Z"/><path class="cls-2" d="M34.51,53.27l-2.28,5.19h-.66l.72-1.62-1.56-3.57h.72l1.17,2.87,1.2-2.87h.68Z"/><path class="cls-2" d="M38.51,55.09c0,1.1-.78,1.91-1.86,1.91s-1.87-.82-1.87-1.91,.78-1.91,1.87-1.91,1.86,.82,1.86,1.91Zm-3.09,0c0,.76,.5,1.33,1.22,1.33s1.22-.57,1.22-1.33-.5-1.33-1.22-1.33-1.22,.57-1.22,1.33Z"/><path class="cls-2" d="M41.97,56.91v-.55c-.15,.27-.57,.64-1.24,.64-.86,0-1.47-.62-1.47-1.6v-2.14h.66v2.02c0,.74,.36,1.14,.95,1.14,.64,0,1.1-.6,1.1-1.27v-1.89h.66v3.65h-.66Z"/><path class="cls-2" d="M44.32,53.27v.56c.16-.27,.6-.65,1.31-.65,.22,0,.37,.02,.5,.06v.62c-.14-.06-.32-.1-.54-.1-.75,0-1.27,.6-1.27,1.26v1.89h-.66v-3.65h.66Z"/><path class="cls-2" d="M49.22,53.27v.52c.17-.27,.49-.61,1.1-.61,.54,0,.96,.3,1.13,.76,.22-.46,.68-.76,1.29-.76,.78,0,1.34,.59,1.34,1.52v2.22h-.66v-2.11c0-.66-.32-1.05-.84-1.05-.55,0-.94,.54-.94,1.2v1.96h-.66v-2.08c0-.68-.32-1.08-.83-1.08-.54,0-.94,.54-.94,1.19v1.97h-.66v-3.65h.66Z"/><path class="cls-2" d="M58.57,55.09c0,1.1-.78,1.91-1.86,1.91s-1.87-.82-1.87-1.91,.78-1.91,1.87-1.91,1.86,.82,1.86,1.91Zm-3.08,0c0,.76,.5,1.33,1.22,1.33s1.22-.57,1.22-1.33-.5-1.33-1.22-1.33-1.22,.57-1.22,1.33Z"/><path class="cls-2" d="M62.04,56.91v-.55c-.15,.27-.57,.64-1.24,.64-.86,0-1.47-.62-1.47-1.6v-2.14h.66v2.02c0,.74,.36,1.14,.95,1.14,.64,0,1.1-.6,1.1-1.27v-1.89h.66v3.65h-.66Z"/><path class="cls-2" d="M66.75,54.24h-.64c-.03-.31-.44-.52-.97-.52s-.91,.21-.91,.48c0,.3,.23,.48,1.12,.61,1.1,.15,1.48,.5,1.48,1.07,0,.71-.75,1.13-1.65,1.13-.98,0-1.6-.47-1.64-1.11h.64c.04,.29,.37,.57,1.02,.57,.56,0,.99-.23,.99-.55,0-.3-.28-.47-1.15-.59-.99-.13-1.45-.45-1.45-1.09s.68-1.06,1.57-1.06,1.56,.44,1.59,1.06Z"/><path class="cls-2" d="M67.48,55.09c0-1.1,.76-1.91,1.83-1.91s1.82,.82,1.82,1.91c0,.08,0,.18-.01,.27h-2.98c.07,.63,.52,1.09,1.17,1.09,.5,0,.89-.23,1.02-.53h.67c-.2,.63-.85,1.08-1.69,1.08-1.06,0-1.83-.82-1.83-1.91Zm1.83-1.36c-.66,0-1.1,.46-1.17,1.09h2.35c-.08-.64-.52-1.09-1.18-1.09Z"/><path class="cls-2" d="M76.37,56.91v-.55c-.15,.27-.57,.64-1.24,.64-.86,0-1.47-.62-1.47-1.6v-2.14h.66v2.02c0,.74,.36,1.14,.95,1.14,.64,0,1.1-.6,1.1-1.27v-1.89h.66v3.65h-.66Z"/><path class="cls-2" d="M78.72,56.37v2.09h-.66v-5.19h.66v.54c.18-.31,.63-.63,1.29-.63,1.03,0,1.8,.82,1.8,1.91s-.77,1.91-1.8,1.91c-.66,0-1.11-.32-1.29-.63Zm2.45-1.28c0-.76-.48-1.33-1.22-1.33s-1.25,.57-1.25,1.33,.51,1.33,1.25,1.33,1.22-.57,1.22-1.33Z"/><path class="cls-2" d="M86.36,53.85h-.81v3.07h-.66v-3.07h-.81v-.58h.81v-1.11h.66v1.11h.81v.58Z"/><path class="cls-2" d="M87.69,51.65v2.17c.15-.27,.57-.64,1.24-.64,.86,0,1.47,.62,1.47,1.6v2.13h-.66v-2.02c0-.74-.36-1.14-.95-1.14-.64,0-1.1,.6-1.1,1.27v1.89h-.66v-5.26h.66Z"/><path class="cls-2" d="M92.11,52.02c0,.25-.18,.43-.44,.43s-.43-.18-.43-.43,.19-.43,.43-.43,.44,.18,.44,.43Zm-.76,4.9v-3.65h.66v3.65h-.66Z"/><path class="cls-2" d="M96.07,54.24h-.64c-.03-.31-.44-.52-.97-.52s-.91,.21-.91,.48c0,.3,.23,.48,1.12,.61,1.1,.15,1.48,.5,1.48,1.07,0,.71-.75,1.13-1.65,1.13-.97,0-1.6-.47-1.64-1.11h.64c.04,.29,.37,.57,1.02,.57,.56,0,.99-.23,.99-.55,0-.3-.28-.47-1.15-.59-.99-.13-1.45-.45-1.45-1.09s.68-1.06,1.57-1.06,1.56,.44,1.59,1.06Z"/><path class="cls-2" d="M96.83,56.54c0-.25,.2-.45,.45-.45s.45,.2,.45,.45-.19,.45-.45,.45-.45-.2-.45-.45Z"/></g></svg>